<svg width="111" height="100" viewBox="0 0 111 100" fill="none" xmlns="http://www.w3.org/2000/svg">
<g id="Layer_1">
<g id="Group">
<path id="Vector" d="M57.2148 68.75H53.7852V87.5H57.2148V68.75Z" fill="#666666"/>
<path id="Vector_2" d="M86.2171 35.8594C86.2171 35.625 86.26 35.3906 86.26 35.1562C86.26 22.5977 74.942 12.4219 61.2233 12.4219C51.3415 12.4219 42.8316 17.7148 38.8446 25.3711C37.1083 24.5703 35.1791 24.1211 33.0999 24.1211C26.7549 24.1211 21.5032 28.7305 20.4743 34.2773C12.929 36.6406 7.48438 43.3984 7.48438 51.1328C7.48438 60.8398 16.08 68.75 26.6906 68.75H39.6377H46.2827H53.7852V40.1953L42.0599 50.8398L39.5734 48.5742L55.5429 34.0625L71.5124 48.5742L68.983 50.8398L57.2148 40.1953V68.75H85.9385C95.5845 68.75 103.516 61.4648 103.516 52.5781C103.516 43.6914 95.906 35.8789 86.2171 35.8594Z" fill="#666666"/>
</g>
</g>
</svg>
