<svg width="20" height="20" viewBox="0 0 20 20" fill="none" xmlns="http://www.w3.org/2000/svg">
<g id="&#240;&#159;&#166;&#134; icon &#34;calendar&#34;">
<path id="Vector" d="M16.4 1C16.4 0.734783 16.2946 0.480429 16.1071 0.292893C15.9196 0.105357 15.6652 0 15.4 0C15.1348 0 14.8804 0.105357 14.6929 0.292893C14.5054 0.480429 14.4 0.734783 14.4 1H16.4ZM14.4 4.6C14.4 4.86522 14.5054 5.11957 14.6929 5.30711C14.8804 5.49464 15.1348 5.6 15.4 5.6C15.6652 5.6 15.9196 5.49464 16.1071 5.30711C16.2946 5.11957 16.4 4.86522 16.4 4.6H14.4ZM5.6 1C5.6 0.734783 5.49465 0.480429 5.30711 0.292893C5.11957 0.105357 4.86522 0 4.6 0C4.33479 0 4.08043 0.105357 3.8929 0.292893C3.70536 0.480429 3.6 0.734783 3.6 1H5.6ZM3.6 4.6C3.6 4.86522 3.70536 5.11957 3.8929 5.30711C4.08043 5.49464 4.33479 5.6 4.6 5.6C4.86522 5.6 5.11957 5.49464 5.30711 5.30711C5.49465 5.11957 5.6 4.86522 5.6 4.6H3.6ZM18 6.8V15H20V6.8H18ZM15 18H5V20H15V18ZM2 15V6.8H4.13212e-06V15H2ZM5.001 3.8H14.998V1.8H5.003V3.8H5.001ZM19 7.2H1V9.2H19V7.2ZM14.4 1V4.6H16.4V1H14.4ZM3.6 1V4.6H5.6V1H3.6ZM5 18C4.029 18 3.401 17.998 2.939 17.936C2.505 17.877 2.369 17.783 2.293 17.707L0.879004 19.121C1.389 19.631 2.017 19.83 2.672 19.918C3.3 20.002 4.085 20 5 20V18ZM4.13212e-06 15C4.13212e-06 15.915 -0.00199585 16.701 0.0820041 17.328C0.170004 17.983 0.369004 18.612 0.879004 19.121L2.293 17.707C2.217 17.631 2.123 17.495 2.064 17.061C2.002 16.6 2 15.971 2 15H4.13212e-06ZM18 15C18 15.971 17.998 16.599 17.936 17.061C17.877 17.495 17.783 17.631 17.707 17.707L19.121 19.121C19.631 18.611 19.83 17.983 19.918 17.328C20.002 16.7 20 15.915 20 15H18ZM15 20C15.915 20 16.701 20.002 17.328 19.918C17.983 19.83 18.612 19.631 19.121 19.121L17.707 17.707C17.631 17.783 17.495 17.877 17.061 17.936C16.599 17.998 15.971 18 15 18V20ZM20 6.8C20 5.885 20.002 5.099 19.918 4.472C19.83 3.817 19.631 3.188 19.121 2.679L17.707 4.093C17.783 4.169 17.877 4.305 17.936 4.739C17.998 5.201 18 5.829 18 6.8H20ZM14.999 3.8C15.97 3.8 16.599 3.802 17.061 3.864C17.495 3.923 17.631 4.017 17.707 4.093L19.121 2.679C18.611 2.169 17.983 1.97 17.327 1.882C16.7 1.798 15.914 1.8 15 1.8L14.999 3.8ZM2 6.8C2 5.829 2.002 5.201 2.064 4.739C2.123 4.305 2.217 4.169 2.293 4.093L0.879004 2.679C0.369004 3.189 0.170004 3.817 0.0820041 4.472C-0.00199585 5.1 4.13212e-06 5.885 4.13212e-06 6.8H2ZM5.001 1.8C4.086 1.8 3.3 1.798 2.673 1.882C2.017 1.97 1.388 2.169 0.879004 2.679L2.293 4.093C2.369 4.017 2.505 3.923 2.939 3.864C3.402 3.802 4.029 3.8 5.001 3.8V1.8Z" fill="black"/>
</g>
</svg>
