<svg width="20" height="20" viewBox="0 0 20 20" fill="none" xmlns="http://www.w3.org/2000/svg">
<g id="&#240;&#159;&#166;&#134; icon &#34;alarm clock 2&#34;">
<path id="Vector" d="M10 19C14.9706 19 19 14.9706 19 10C19 5.02944 14.9706 1 10 1C5.02944 1 1 5.02944 1 10C1 14.9706 5.02944 19 10 19Z" stroke="black" stroke-width="2"/>
<path id="Vector_2" d="M1 10V15C1 16.886 1 17.828 1.586 18.414C2.172 19 3.114 19 5 19H15C16.886 19 17.828 19 18.414 18.414C19 17.828 19 16.886 19 15V10M10 6V10H5" stroke="black" stroke-width="2" stroke-linecap="round"/>
</g>
</svg>
